<?xml version="1.0" encoding="utf-8"?>
<!-- Generator: Adobe Illustrator 19.1.0, SVG Export Plug-In . SVG Version: 6.00 Build 0)  -->
<svg version="1.1" id="Слой_1" xmlns="http://www.w3.org/2000/svg" xmlns:xlink="http://www.w3.org/1999/xlink" x="0px" y="0px"
	 viewBox="0 0 20 12" style="enable-background:new 0 0 20 12;" xml:space="preserve">
<style type="text/css">
	.st0{fill:#F16A37;}
</style>
<path class="st0" d="M10.8,10.7l4-4c0,0,0.1-0.1,0.1-0.2C15,6.4,15,6.2,15,6.1c0-0.1-0.1-0.1-0.1-0.2l-4-4c-0.2-0.2-0.5-0.2-0.7,0
	c-0.2,0.2-0.2,0.5,0,0.7l3.2,3.2l-9.7,0C3.2,5.8,3,6,3,6.3c0,0.3,0.2,0.5,0.5,0.5l9.7,0L10.1,10c-0.1,0.1-0.2,0.2-0.2,0.4
	s0.1,0.3,0.2,0.4C10.3,10.9,10.6,10.9,10.8,10.7z"/>
</svg>
