<?xml version="1.0" encoding="utf-8"?>
<!-- Generator: Adobe Illustrator 19.1.0, SVG Export Plug-In . SVG Version: 6.00 Build 0)  -->
<svg version="1.1" id="Outline_Old_Icons" xmlns="http://www.w3.org/2000/svg" xmlns:xlink="http://www.w3.org/1999/xlink" x="0px"
	 y="0px" viewBox="0 0 32.7 35.7" style="enable-background:new 0 0 32.7 35.7;" xml:space="preserve">
<style type="text/css">
	.st0{fill:none;stroke:#6B6464;stroke-width:2;stroke-linecap:round;stroke-linejoin:round;stroke-miterlimit:10;}
	.st1{fill:none;stroke:#6B6464;stroke-linecap:round;stroke-linejoin:round;stroke-miterlimit:10;}
</style>
<path class="st0" d="M27.2,20v-7.4c-2.2,2.2-12.6,2.2-14.8,0V20c0,4.8,5.7,8.7,7.4,8.7S27.2,24.8,27.2,20z"/>
<path class="st0" d="M21.9,11.7v-3c-2.2,2.2-12.6,2.2-14.8,0v7.4c0,2.2,1.1,4.1,2.6,5.7"/>
<path class="st1" d="M22.4,22.6c0,1.4-1.2,2.6-2.6,2.6c-1.4,0-2.6-1.2-2.6-2.6"/>
<path class="st1" d="M21.5,18.7c0-0.7,0.6-1.3,1.3-1.3c0.7,0,1.3,0.6,1.3,1.3"/>
<path class="st1" d="M15.4,18.7c0-0.7,0.6-1.3,1.3-1.3c0.7,0,1.3,0.6,1.3,1.3"/>
</svg>
