<?xml version="1.0" encoding="utf-8"?>
<!-- Generator: Adobe Illustrator 19.1.0, SVG Export Plug-In . SVG Version: 6.00 Build 0)  -->
<svg version="1.1" id="Слой_1" xmlns="http://www.w3.org/2000/svg" xmlns:xlink="http://www.w3.org/1999/xlink" x="0px" y="0px"
	 viewBox="0 0 22 20" style="enable-background:new 0 0 22 20;" xml:space="preserve">
<style type="text/css">
	.st0{fill:none;stroke:#F8F8F8;stroke-linecap:round;stroke-linejoin:round;stroke-miterlimit:10;}
</style>
<g id="XMLID_56_">
	<path id="XMLID_47_" class="st0" d="M19.5,11.6V5.3c-1.8,1.8-11,1.8-13,0v6.3c0,4.1,5,7.4,6.5,7.4S19.5,15.7,19.5,11.6z"/>
	<path id="XMLID_46_" class="st0" d="M15.5,5V2c-2,1.8-10.3,1.8-13,0v6.3c0,1.8,1.2,3.7,2.4,5"/>
	<path id="XMLID_45_" class="st0" d="M15.9,13.8c0,1.2-1,2.2-2.2,2.2c-1.2,0-2.2-1-2.2-2.2"/>
	<path id="XMLID_44_" class="st0" d="M15.1,10.5c0-0.6,0.5-1.1,1.1-1.1c0.6,0,1.1,0.5,1.1,1.1"/>
	<path id="XMLID_42_" class="st0" d="M10,10.5c0-0.6,0.5-1.1,1.1-1.1c0.6,0,1.1,0.5,1.1,1.1"/>
</g>
</svg>
