<?xml version="1.0" encoding="utf-8"?>
<!-- Generator: Adobe Illustrator 19.1.0, SVG Export Plug-In . SVG Version: 6.00 Build 0)  -->
<svg version="1.1" id="Слой_1" xmlns="http://www.w3.org/2000/svg" xmlns:xlink="http://www.w3.org/1999/xlink" x="0px" y="0px"
	 viewBox="0 0 22 22" style="enable-background:new 0 0 22 22;" xml:space="preserve">
<style type="text/css">
	.st0{fill:none;stroke:#F8F8F8;stroke-linejoin:round;stroke-miterlimit:10;}
	.st1{fill:none;stroke:#F8F8F8;stroke-linecap:round;stroke-linejoin:round;stroke-miterlimit:10;}
</style>
<g id="kino">
	<path id="XMLID_52_" class="st0" d="M17.5,17.6c0,0.5-0.7,0.9-1.2,0.9H5c-0.4,0-1.5-0.4-1.5-0.9v-6.8c0-0.5,1.1-0.3,1.5-0.3h11.3
		c0.4,0,1.2-0.1,1.2,0.3V17.6z"/>
	<line id="XMLID_51_" class="st1" x1="6" y1="13.5" x2="14" y2="13.5"/>
	<ellipse id="XMLID_50_" class="st1" cx="6.5" cy="4.9" rx="3.2" ry="3.4"/>
	<ellipse id="XMLID_49_" class="st1" cx="13.3" cy="6.1" rx="2" ry="2.1"/>
	<path id="XMLID_43_" class="st1" d="M16.9,15.5l3.5,1.8c0.4,0.2,0.1-0.1,0.1-0.5v-5.1c0-0.5,0.3-0.7-0.1-0.5l-3.8,1.8"/>
</g>
</svg>
