<?xml version="1.0" encoding="utf-8"?>
<!-- Generator: Adobe Illustrator 19.1.0, SVG Export Plug-In . SVG Version: 6.00 Build 0)  -->
<svg version="1.1" id="Слой_1" xmlns="http://www.w3.org/2000/svg" xmlns:xlink="http://www.w3.org/1999/xlink" x="0px" y="0px"
	 viewBox="0 0 20 20" style="enable-background:new 0 0 20 20;" xml:space="preserve">
<style type="text/css">
	.st0{fill:none;stroke:#F8F8F8;stroke-linecap:round;stroke-linejoin:round;stroke-miterlimit:10;}
</style>
<g id="XMLID_48_">
	<path id="XMLID_55_" class="st0" d="M7.2,5.6c0,17.7,0-11.3,0,7.6c0,2.5,1.1,4.7,3,5.8"/>
	<path id="XMLID_54_" class="st0" d="M19,9.6c0,0.7-0.5,1.3-1.1,1.3h-0.4V7.4h0.4C18.5,7.4,19,8,19,8.7V9.6z"/>
	<path id="XMLID_53_" class="st0" d="M5,5.6H4.2C3,5.6,2,6.8,2,8.3v1.8c0,1.5,1,2.7,2.2,2.7H5c6.6,0,9.3,1.8,12.6,3.6V2
		C14.3,3.8,11.6,5.6,5,5.6z"/>
</g>
</svg>
