<?xml version="1.0" encoding="utf-8"?>
<!-- Generator: Adobe Illustrator 19.1.0, SVG Export Plug-In . SVG Version: 6.00 Build 0)  -->
<svg version="1.1" id="Слой_1" xmlns="http://www.w3.org/2000/svg" xmlns:xlink="http://www.w3.org/1999/xlink" x="0px" y="0px"
	 viewBox="0 0 50 50" style="enable-background:new 0 0 50 50;" xml:space="preserve">
<style type="text/css">
	.st0{fill:none;stroke:#000000;stroke-linecap:round;stroke-linejoin:round;stroke-miterlimit:10;}
</style>
<g id="XMLID_56_">
	<path id="XMLID_47_" class="st0" d="M44.5,27.1V12.3c-4,4.3-25,4.4-30,0v14.8c0,9.6,11.5,17.4,15,17.4S44.5,36.7,44.5,27.1z"/>
	<path id="XMLID_46_" class="st0" d="M35.5,12V4.5c-5,4.3-24,4.4-31,0v14.8c0,4.3,3,9,5.8,12"/>
	<path id="XMLID_45_" class="st0" d="M36.5,32.3c0,2.9-2.3,5.2-5.2,5.2c-2.9,0-5.2-2.3-5.2-5.2"/>
	<path id="XMLID_44_" class="st0" d="M34.7,24.5c0-1.4,1.2-2.6,2.6-2.6c1.4,0,2.6,1.2,2.6,2.6"/>
	<path id="XMLID_42_" class="st0" d="M22.6,24.5c0-1.4,1.2-2.6,2.6-2.6c1.4,0,2.6,1.2,2.6,2.6"/>
</g>
</svg>
