<?xml version="1.0" encoding="utf-8"?>
<!-- Generator: Adobe Illustrator 19.1.0, SVG Export Plug-In . SVG Version: 6.00 Build 0)  -->
<svg version="1.1" id="Слой_1" xmlns="http://www.w3.org/2000/svg" xmlns:xlink="http://www.w3.org/1999/xlink" x="0px" y="0px"
	 viewBox="0 0 50 50" style="enable-background:new 0 0 50 50;" xml:space="preserve">
<style type="text/css">
	.st0{fill:none;stroke:#000000;stroke-linecap:round;stroke-linejoin:round;stroke-miterlimit:10;}
</style>
<g id="XMLID_48_">
	<path id="XMLID_55_" class="st0" d="M17.5,12.8c0,41.6,0-26.6,0,18c0,5.8,2.7,11,7,13.6"/>
	<path id="XMLID_54_" class="st0" d="M45.3,22.3c0,1.7-1.2,3.2-2.6,3.2h-0.9v-8.4h0.9c1.4,0,2.6,1.4,2.6,3.2V22.3z"/>
	<path id="XMLID_53_" class="st0" d="M12.3,12.8h-1.7c-2.9,0-5.2,2.8-5.2,6.3v4.2c0,3.5,2.3,6.3,5.2,6.3h1.7
		c15.5,0,21.9,4.2,29.6,8.4V4.4C34.2,8.6,27.8,12.8,12.3,12.8z"/>
</g>
</svg>
