<?xml version="1.0" encoding="utf-8"?>
<!-- Generator: Adobe Illustrator 19.1.0, SVG Export Plug-In . SVG Version: 6.00 Build 0)  -->
<svg version="1.1" id="Слой_1" xmlns="http://www.w3.org/2000/svg" xmlns:xlink="http://www.w3.org/1999/xlink" x="0px" y="0px"
	 viewBox="0 0 50 50" style="enable-background:new 0 0 50 50;" xml:space="preserve">
<path d="M31,41.3l13.5-13.5c0.2-0.2,0.3-0.4,0.4-0.6c0.2-0.4,0.2-0.9,0-1.3c-0.1-0.2-0.2-0.4-0.4-0.6L31,11.8
	c-0.7-0.7-1.8-0.7-2.5,0c-0.7,0.7-0.7,1.4,0,2.1L39.1,24H6.7c-1,0-1.7,0.5-1.7,1.5S5.8,27,6.7,27h32.3L28.5,38.2
	c-0.3,0.3-0.5,1.1-0.5,1.5c0,0.4,0.2,1.1,0.5,1.4C29.2,41.8,30.3,41.9,31,41.3z"/>
</svg>
