<?xml version="1.0" encoding="utf-8"?>
<!-- Generator: Adobe Illustrator 19.1.0, SVG Export Plug-In . SVG Version: 6.00 Build 0)  -->
<svg version="1.1" id="Слой_1" xmlns="http://www.w3.org/2000/svg" xmlns:xlink="http://www.w3.org/1999/xlink" x="0px" y="0px"
	 viewBox="0 0 50 50" style="enable-background:new 0 0 50 50;" xml:space="preserve">
<style type="text/css">
	.st0{fill:none;stroke:#000000;stroke-linejoin:round;stroke-miterlimit:10;}
	.st1{fill:none;stroke:#000000;stroke-linecap:round;stroke-linejoin:round;stroke-miterlimit:10;}
</style>
<g id="kino">
	<path id="XMLID_52_" class="st0" d="M38.5,41.7c0,1.1-1.4,1.8-2.5,1.8H9.9c-1,0-3.4-0.8-3.4-1.8V26c0-1.1,2.4-0.5,3.4-0.5H36
		c1,0,2.5-0.6,2.5,0.5V41.7z"/>
	<line id="XMLID_51_" class="st1" x1="12" y1="32.5" x2="31" y2="32.5"/>
	<ellipse id="XMLID_50_" class="st1" cx="13.4" cy="12.1" rx="7.4" ry="7.9"/>
	<ellipse id="XMLID_49_" class="st1" cx="29.1" cy="15.1" rx="4.6" ry="4.9"/>
	<path id="XMLID_43_" class="st1" d="M37.4,36.7l7.9,4.2c0.9,0.4,0.2-0.1,0.2-1.2V27.9c0-1.1,0.8-1.6-0.2-1.2l-8.6,4.2"/>
</g>
</svg>
