<?xml version="1.0" encoding="utf-8"?><svg width="135" height="109" viewBox="0 0 135 109" xmlns="http://www.w3.org/2000/svg" xmlns:xlink="http://www.w3.org/1999/xlink"><view id="arrow-r" viewBox="25.8 66.4 20 12"/><svg id="aСлой_1" viewBox="0 0 20 12" width="20" height="12" x="25.8" y="66.4"><style>.ast0{fill:#f16a37}</style><path class="ast0" d="M10.8 10.7l4-4s.1-.1.1-.2c.1-.1.1-.3.1-.4 0-.1-.1-.1-.1-.2l-4-4c-.2-.2-.5-.2-.7 0-.2.2-.2.5 0 .7l3.2 3.2H3.7c-.5 0-.7.2-.7.5s.2.5.5.5h9.7L10.1 10c-.1.1-.2.2-.2.4s.1.3.2.4c.2.1.5.1.7-.1z"/></svg><view id="calendar-w" viewBox="30.4 35.7 30.5 26.5"/><svg id="bСлой_1" viewBox="0 0 30.5 26.5" width="30.5" height="26.5" x="30.4" y="35.7"><style>.bst0,.bst1{fill:none;stroke:#fff;stroke-width:2;stroke-linecap:round;stroke-linejoin:round;stroke-miterlimit:10}.bst1{fill:#fff}</style><path class="bst0" d="M9.8 6.9H7v14.6h16V6.9h-2.8"/><path class="bst1" d="M9.8 5.5h2.1v2.8H9.8zM18.1 5.5h2.1v2.8h-2.1z"/><path class="bst0" d="M11.9 6.9h6.2M7 10.4h16M11.6 17.7h-.8M15.1 17.7h-.9M18.5 17.7h-.8M10.8 13.9h.8M15.1 13.9h-.9M18.5 13.9h-.8"/></svg><view id="cubes" viewBox="0 35.7 30.4 30.7"/><svg id="cСлой_1" viewBox="0 0 30.4 30.7" width="30.4" height="30.7" y="35.7"><style>.cst0{fill:none;stroke:#6b6464;stroke-width:2;stroke-linecap:round;stroke-linejoin:round;stroke-miterlimit:10}</style><g id="cXMLID_94_"><path id="cXMLID_100_" class="cst0" d="M3.4 15.8h10v10h-10z"/><path id="cXMLID_99_" class="cst0" d="M17.4 15.8h10v10h-10z"/><path id="cXMLID_98_" class="cst0" d="M11.4 2.8h10v10h-10z"/><path id="cXMLID_97_" class="cst0" d="M6.4 22.8v-4h3"/><path id="cXMLID_96_" class="cst0" d="M14.4 8.8v-3h4"/><path id="cXMLID_95_" class="cst0" d="M20.4 22.8v-4h4"/></g></svg><view id="eye-w" viewBox="0 66.4 25.8 19.9"/><svg id="dСлой_1" viewBox="0 0 25.8 19.9" width="25.8" height="19.9" y="66.4"><style>.dst0,.dst1{fill:none;stroke:#fff;stroke-linejoin:round;stroke-miterlimit:10}.dst1{fill:#717171;stroke-width:1.2304}</style><g id="deye"><path id="dXMLID_87_" class="dst0" d="M21 9.3s-3.8 5-8.5 5-8.5-5-8.5-5 3.8-5 8.5-5 8.5 5 8.5 5z"/><ellipse id="dXMLID_86_" class="dst1" cx="12.5" cy="9.3" rx="3" ry="3.1"/><path id="dXMLID_85_" class="dst0" d="M11 9.5c0-.8.6-1.5 1.5-1.5"/></g></svg><view id="face" viewBox="22 86.30000000000001 22 20"/><svg id="eСлой_1" viewBox="0 0 22 20" width="22" height="20" x="22" y="86.30000000000001"><style>.est0{fill:none;stroke:#f8f8f8;stroke-linecap:round;stroke-linejoin:round;stroke-miterlimit:10}</style><g id="eXMLID_56_"><path id="eXMLID_47_" class="est0" d="M19.5 11.6V5.3c-1.8 1.8-11 1.8-13 0v6.3c0 4.1 5 7.4 6.5 7.4s6.5-3.3 6.5-7.4z"/><path id="eXMLID_46_" class="est0" d="M15.5 5V2c-2 1.8-10.3 1.8-13 0v6.3c0 1.8 1.2 3.7 2.4 5"/><path id="eXMLID_45_" class="est0" d="M15.9 13.8c0 1.2-1 2.2-2.2 2.2-1.2 0-2.2-1-2.2-2.2"/><path id="eXMLID_44_" class="est0" d="M15.1 10.5c0-.6.5-1.1 1.1-1.1.6 0 1.1.5 1.1 1.1"/><path id="eXMLID_42_" class="est0" d="M10 10.5c0-.6.5-1.1 1.1-1.1.6 0 1.1.5 1.1 1.1"/></g></svg><view id="face-g" viewBox="0 0 32.7 35.7"/><svg id="fOutline_Old_Icons" viewBox="0 0 32.7 35.7" width="32.7" height="35.7"><style>.fst0{stroke-width:2}.fst0,.fst1{fill:none;stroke:#6b6464;stroke-linecap:round;stroke-linejoin:round;stroke-miterlimit:10}</style><path class="fst0" d="M27.2 20v-7.4c-2.2 2.2-12.6 2.2-14.8 0V20c0 4.8 5.7 8.7 7.4 8.7s7.4-3.9 7.4-8.7z"/><path class="fst0" d="M21.9 11.7v-3c-2.2 2.2-12.6 2.2-14.8 0v7.4c0 2.2 1.1 4.1 2.6 5.7"/><path class="fst1" d="M22.4 22.6c0 1.4-1.2 2.6-2.6 2.6-1.4 0-2.6-1.2-2.6-2.6M21.5 18.7c0-.7.6-1.3 1.3-1.3.7 0 1.3.6 1.3 1.3M15.4 18.7c0-.7.6-1.3 1.3-1.3.7 0 1.3.6 1.3 1.3"/></svg><view id="film" viewBox="0 86.30000000000001 22 22"/><svg id="gСлой_1" viewBox="0 0 22 22" width="22" height="22" y="86.30000000000001"><style>.gst0,.gst1{fill:none;stroke:#f8f8f8;stroke-linejoin:round;stroke-miterlimit:10}.gst1{stroke-linecap:round}</style><g id="gkino"><path id="gXMLID_52_" class="gst0" d="M17.5 17.6c0 .5-.7.9-1.2.9H5c-.4 0-1.5-.4-1.5-.9v-6.8c0-.5 1.1-.3 1.5-.3h11.3c.4 0 1.2-.1 1.2.3v6.8z"/><path id="gXMLID_51_" class="gst1" d="M6 13.5h8"/><ellipse id="gXMLID_50_" class="gst1" cx="6.5" cy="4.9" rx="3.2" ry="3.4"/><ellipse id="gXMLID_49_" class="gst1" cx="13.3" cy="6.1" rx="2" ry="2.1"/><path id="gXMLID_43_" class="gst1" d="M16.9 15.5l3.5 1.8c.4.2.1-.1.1-.5v-5.1c0-.5.3-.7-.1-.5L16.6 13"/></g></svg><view id="flag" viewBox="60.9 35.7 22 20"/><svg id="hСлой_1" viewBox="0 0 22 20" width="22" height="20" x="60.9" y="35.7"><style>.hst0{fill:none;stroke:#f8f8f8;stroke-linecap:round;stroke-linejoin:round;stroke-miterlimit:10}</style><g id="hinteresnoe"><path id="hXMLID_39_" class="hst0" d="M4.5 2v17"/><path id="hXMLID_38_" class="hst0" d="M19.5 3.9l-5 .6c0-3-6 0-6 0v8s6-2 6 0c0 3 5 .3 5 .3V3.9z"/></g></svg><view id="flatware" viewBox="32.7 0 22.1 30.7"/><svg id="iСлой_1" viewBox="0 0 22.1 30.7" width="22.1" height="30.7" x="32.7"><style>.ist0{fill:none;stroke:#6b6464;stroke-width:2;stroke-linecap:round;stroke-linejoin:round;stroke-miterlimit:10}</style><g id="ipotipu"><path id="iXMLID_64_" class="ist0" d="M3.4 3.8V9c0 1.7 1.3 3 3 3s3-1.3 3-3V3.8"/><path id="iXMLID_60_" class="ist0" d="M6.4 3.8v23"/><path id="iXMLID_59_" class="ist0" d="M15.4 11.8v15"/><path id="iXMLID_57_" class="ist0" d="M12.4 7c0-1.7 1.3-3 3-3s3 1.3 3 3v2c0 1.7-1.3 3-3 3s-3-1.3-3-3V7z"/></g></svg><view id="glass" viewBox="83.9 0 30.5 26.5"/><svg id="jСлой_1" viewBox="0 0 30.5 26.5" width="30.5" height="26.5" x="83.9"><style>.jst0{stroke-linecap:round}.jst0,.jst1{fill:none;stroke:#999;stroke-width:2;stroke-linejoin:round;stroke-miterlimit:10}</style><path class="jst0" d="M7.6 6.9l7.2 7.2 7.1-7.2zM14.8 14.1v8M11.2 22.1h7.2"/><path class="jst1" d="M10.3 6.9L7.2 3.4H3.6M19.4 6.9c-.1-.3-.2-.6-.2-.9 0-1.5 1.2-2.7 2.7-2.7 1.5 0 2.7 1.2 2.7 2.7s-1.2 2.7-2.7 2.7c-.5 0-1-.1-1.4-.4"/></svg><view id="map" viewBox="44 86.30000000000001 22 20"/><svg id="kСлой_1" viewBox="0 0 22 20" width="22" height="20" x="44" y="86.30000000000001"><style>.kst0{fill:none;stroke:#f8f8f8;stroke-linecap:round;stroke-linejoin:round;stroke-miterlimit:10}</style><g id="kmesta"><path id="kXMLID_41_" class="kst0" d="M18.1 8.7c0 5.2-6.5 10-6.5 10s-6.5-4.8-6.5-10c0-3.9 2.7-7 6.5-7s6.5 3.2 6.5 7z"/><ellipse id="kXMLID_40_" class="kst0" cx="11.6" cy="8.4" rx="3.6" ry="3.7"/></g></svg><view id="map2" viewBox="54.800000000000004 0 29.1 30.7"/><svg id="lСлой_1" viewBox="0 0 29.1 30.7" width="29.1" height="30.7" x="54.800000000000004"><style>.lst0,.lst1{fill:none;stroke:#6b6464;stroke-width:2;stroke-linecap:round;stroke-linejoin:round;stroke-miterlimit:10}.lst1{stroke-width:1.7143}</style><g id="lXMLID_73_"><path id="lXMLID_78_" class="lst0" d="M9.4 7.8v17"/><path id="lXMLID_77_" class="lst0" d="M17.4 12.8v-9"/><path id="lXMLID_76_" class="lst0" d="M15.8 20.6l-6.2 4.5-7.2-5.3V3.1l7.1 5.2 7.4-5.2 7.5 5.2v5.5"/><path id="lXMLID_75_" class="lst1" d="M26 19.7c0 2.3-4.2 7.3-4.2 7.3s-4.2-5-4.2-7.3 1.9-4.2 4.2-4.2c2.3 0 4.2 1.9 4.2 4.2z"/><circle id="lXMLID_74_" class="lst1" cx="21.8" cy="19.7" r="1.6"/></g></svg><view id="search" viewBox="83.9 26.5 30 30"/><svg id="mСлой_1" viewBox="0 0 30 30" width="30" height="30" x="83.9" y="26.5"><style>.mst0,.mst1{fill:none;stroke:#dddada;stroke-width:2;stroke-linejoin:round;stroke-miterlimit:10}.mst1{stroke-linecap:round}</style><circle class="mst0" cx="12" cy="11.5" r="8"/><path class="mst1" d="M17.7 17.2l9.3 9.3"/></svg><view id="star" viewBox="66 86.30000000000001 22 20"/><svg id="nСлой_1" viewBox="0 0 22 20" width="22" height="20" x="66" y="86.30000000000001"><style>.nst0{fill:none;stroke:#f8f8f8;stroke-linecap:round;stroke-linejoin:round;stroke-miterlimit:10}</style><g id="npopulyarnoe_x5F_white"><path id="nXMLID_48_" class="nst0" d="M10 1.1l2.2 6.4h6.3l-5.2 3.8 2.2 6.5-5.5-4.1-5.5 4 2.2-6.4-5.2-3.8h6.3z"/></g></svg><view id="stick" viewBox="88 86.30000000000001 22 20"/><svg id="oСлой_1" viewBox="0 0 22 20" width="22" height="20" x="88" y="86.30000000000001"><style>.ost0{stroke-linecap:round}.ost0,.ost1{fill:none;stroke:#f8f8f8;stroke-linejoin:round;stroke-miterlimit:10}</style><g id="odeti_x5F_white"><path id="oXMLID_37_" class="ost0" d="M3 18L14.9 6.1"/><path id="oXMLID_36_" class="ost1" d="M19.1 2l-1 2.8L20 6.6l-2.8-.3-1.5 2.8-.7-3-3.1-.7 2.8-1.6-.3-2.8 1.9 1.9z"/></g></svg><view id="voice" viewBox="114.4 0 20 20"/><svg id="pСлой_1" viewBox="0 0 20 20" width="20" height="20" x="114.4"><style>.pst0{fill:none;stroke:#f8f8f8;stroke-linecap:round;stroke-linejoin:round;stroke-miterlimit:10}</style><g id="pXMLID_48_"><path id="pXMLID_55_" class="pst0" d="M7.2 5.6v7.6c0 2.5 1.1 4.7 3 5.8"/><path id="pXMLID_54_" class="pst0" d="M19 9.6c0 .7-.5 1.3-1.1 1.3h-.4V7.4h.4c.6 0 1.1.6 1.1 1.3v.9z"/><path id="pXMLID_53_" class="pst0" d="M5 5.6h-.8C3 5.6 2 6.8 2 8.3v1.8c0 1.5 1 2.7 2.2 2.7H5c6.6 0 9.3 1.8 12.6 3.6V2c-3.3 1.8-6 3.6-12.6 3.6z"/></g></svg></svg>